<svg width="20" height="17" viewBox="0 0 20 17" fill="none" xmlns="http://www.w3.org/2000/svg">
<path d="M3.04119 12.2902C2.63326 12.3755 2.20817 12.2992 1.85532 12.0774C1.50248 11.8557 1.24936 11.5058 1.14919 11.1012V11.1002C1.09837 10.895 1.0885 10.6817 1.12016 10.4726C1.15182 10.2636 1.22438 10.0628 1.3337 9.88178C1.44301 9.70077 1.58693 9.54308 1.75723 9.41773C1.92753 9.29238 2.12087 9.20182 2.32619 9.15125L6.90219 8.01825L12.0582 1.20425L14.2822 0.979248L11.3512 7.56825L15.8002 7.11925L18.1122 3.29025L19.4922 3.60025L18.2522 9.12025L3.04119 12.2902ZM18.8832 14.9942L0.883188 14.9942V16.9942L18.8832 16.9942V14.9942Z" fill="#2F2C2C"/>
</svg>
