<svg width="33" height="33" viewBox="0 0 33 33" fill="none" xmlns="http://www.w3.org/2000/svg">
<path d="M0.23066 19.234C0.590413 21.3963 1.38061 23.4644 2.55441 25.3156C6.81003 24.129 10.5528 21.885 11.8838 16.8841C13.3482 11.38 11.6775 5.6105 7.68041 2.55388C2.23541 6.001 -0.903715 12.4814 0.23066 19.234ZM32.7687 13.7684C34.2784 22.7526 28.2202 31.2611 19.2332 32.7695C17.7207 33.0239 16.2219 33.0638 14.7713 32.9111C12.4695 32.6668 10.2446 31.9418 8.24078 30.7831C6.23693 29.6244 4.49876 28.0577 3.13878 26.1846L29.8523 18.5259C30.2359 18.4159 30.1369 18.046 29.8193 18.068L18.6199 18.8504C20.1984 17.3269 21.3988 15.4583 21.253 12.876C20.9588 8.69188 16.7004 4.60813 8.78041 1.92138C11.6776 0.386727 14.9658 -0.251295 18.2267 0.0885043C25.4152 0.842004 31.5133 6.2925 32.7687 13.7698" fill="#FF5E0D"/>
</svg>
